<svg xmlns="http://www.w3.org/2000/svg" xmlns:xlink="http://www.w3.org/1999/xlink" width="199.56" height="65.244" viewBox="0 0 199.56 65.244">
  <defs>
    <linearGradient id="linear-gradient" x1="0.644" y1="-0.047" x2="0.538" y2="0.401" gradientUnits="objectBoundingBox">
      <stop offset="0" stop-color="#bbffea"/>
      <stop offset="1" stop-color="#92efdb"/>
    </linearGradient>
    <linearGradient id="linear-gradient-2" x1="0.5" y1="0.003" x2="0.5" y2="1.001" gradientUnits="objectBoundingBox">
      <stop offset="0" stop-color="#bbffea" stop-opacity="0"/>
      <stop offset="0.154" stop-color="#a0f1ec" stop-opacity="0.243"/>
      <stop offset="0.318" stop-color="#86e5ee" stop-opacity="0.471"/>
      <stop offset="0.478" stop-color="#71daef" stop-opacity="0.659"/>
      <stop offset="0.629" stop-color="#61d2f1" stop-opacity="0.808"/>
      <stop offset="0.771" stop-color="#55ccf2" stop-opacity="0.914"/>
      <stop offset="0.899" stop-color="#4ec9f2" stop-opacity="0.976"/>
      <stop offset="1" stop-color="#4cc8f3"/>
    </linearGradient>
    <linearGradient id="linear-gradient-3" x1="0.159" y1="0.605" x2="1.046" y2="-0.008" gradientUnits="objectBoundingBox">
      <stop offset="0" stop-color="#bbffea" stop-opacity="0"/>
      <stop offset="0.084" stop-color="#b8efec" stop-opacity="0.149"/>
      <stop offset="0.222" stop-color="#b5d7f0" stop-opacity="0.373"/>
      <stop offset="0.361" stop-color="#b1c3f4" stop-opacity="0.565"/>
      <stop offset="0.497" stop-color="#afb2f6" stop-opacity="0.722"/>
      <stop offset="0.631" stop-color="#ada5f9" stop-opacity="0.843"/>
      <stop offset="0.761" stop-color="#ac9cfa" stop-opacity="0.929"/>
      <stop offset="0.886" stop-color="#ab96fb" stop-opacity="0.98"/>
      <stop offset="1" stop-color="#ab95fc"/>
    </linearGradient>
  </defs>
  <g id="Grupo_6" data-name="Grupo 6" transform="translate(-369.333 -13.967)">
    <g id="Grupo_1" data-name="Grupo 1" transform="translate(369.333 13.967)">
      <path id="Trazado_1" data-name="Trazado 1" d="M401.829,79.21a32.623,32.623,0,0,1-2.9-65.11c.937-.088,1.914-.133,2.9-.133A32.92,32.92,0,0,1,430.155,30.21a7.515,7.515,0,0,1-2.66,10.129l-.053.031a7.643,7.643,0,0,1-8.219-.606,7.429,7.429,0,0,1-1.878-2.077,17.878,17.878,0,0,0-33.366,8.9,17.851,17.851,0,0,0,32.878,9.635,7.6,7.6,0,0,1,10.261-2.255l.031.019a7.277,7.277,0,0,1,3.178,4.706,7.469,7.469,0,0,1-1.078,5.577A32.358,32.358,0,0,1,401.829,79.21Zm0-62.869c-.912,0-1.816.042-2.685.123a30.252,30.252,0,0,0,2.685,60.372,30,30,0,0,0,25.425-13.855A5.121,5.121,0,0,0,428,59.159a4.922,4.922,0,0,0-2.131-3.173,5.2,5.2,0,0,0-7.015,1.523,20.224,20.224,0,1,1-17.024-31.142,20.273,20.273,0,0,1,17.56,10.112,5.018,5.018,0,0,0,1.264,1.39,5.266,5.266,0,0,0,5.633.428,5.129,5.129,0,0,0,1.818-6.889A30.534,30.534,0,0,0,401.829,16.342Z" transform="translate(-369.333 -13.967)" fill="url(#linear-gradient)"/>
    </g>
    <g id="Grupo_2" data-name="Grupo 2" transform="translate(369.333 14.243)">
      <path id="Trazado_2" data-name="Trazado 2" d="M427.149,53.889l-.031-.019a7.6,7.6,0,0,0-10.261,2.255,17.85,17.85,0,1,1-19.229-26.981V26.709a20.224,20.224,0,1,0,21.225,30.7,5.2,5.2,0,0,1,7.015-1.522A4.922,4.922,0,0,1,428,59.061a5.121,5.121,0,0,1-.744,3.822A30.211,30.211,0,1,1,379.661,26a29.979,29.979,0,0,1,17.967-9.458V14.145a32.628,32.628,0,0,0,4.2,64.967,32.356,32.356,0,0,0,27.42-14.941,7.469,7.469,0,0,0,1.078-5.577A7.277,7.277,0,0,0,427.149,53.889Z" transform="translate(-369.333 -14.145)" fill="url(#linear-gradient-2)"/>
    </g>
    <g id="Grupo_3" data-name="Grupo 3" transform="translate(369.383 48.383)">
      <path id="Trazado_3" data-name="Trazado 3" d="M430.309,46.466a7.277,7.277,0,0,0-3.178-4.706l-.031-.019A7.6,7.6,0,0,0,416.839,44a17.89,17.89,0,0,1-32.786-7.84h-2.384a20.223,20.223,0,0,0,37.166,9.124,5.2,5.2,0,0,1,7.015-1.522,4.922,4.922,0,0,1,2.131,3.173,5.121,5.121,0,0,1-.744,3.822,30.166,30.166,0,0,1-55.492-14.6h-2.379a32.541,32.541,0,0,0,59.866,15.887A7.469,7.469,0,0,0,430.309,46.466Z" transform="translate(-369.365 -36.157)" fill="url(#linear-gradient-3)"/>
    </g>
    <g id="Grupo_5" data-name="Grupo 5" transform="translate(443.811 34.111)">
      <g id="Grupo_4" data-name="Grupo 4">
        <path id="Trazado_4" data-name="Trazado 4" d="M417.353,41.107a12.969,12.969,0,0,1,12.979-12.943,12.428,12.428,0,0,1,10.993,6.362,1.836,1.836,0,1,1-3.088,1.985,9.172,9.172,0,0,0-7.905-4.6,9.274,9.274,0,0,0-9.228,9.193,9.2,9.2,0,0,0,16.914,4.853,1.6,1.6,0,0,1,2.426-.44,1.619,1.619,0,0,1,.662,2.426A12.7,12.7,0,0,1,430.332,53.9,12.962,12.962,0,0,1,417.353,41.107Z" transform="translate(-417.353 -26.289)" fill="gray"/>
        <path id="Trazado_5" data-name="Trazado 5" d="M445.369,34.683a1.844,1.844,0,0,1-1.838,1.839,5.586,5.586,0,0,0-5.588,5.588V49.5a1.82,1.82,0,1,1-3.64,0V42.11a9.234,9.234,0,0,1,9.228-9.228A1.811,1.811,0,0,1,445.369,34.683Z" transform="translate(-408.014 -23.689)" fill="gray"/>
        <path id="Trazado_6" data-name="Trazado 6" d="M459.825,42.086a1.813,1.813,0,0,1-1.839,1.8H445.3a5.6,5.6,0,0,0,5.293,3.787,7.217,7.217,0,0,0,4.118-1.214,1.76,1.76,0,0,1,2.427.847,1.916,1.916,0,0,1-.883,2.427,9.012,9.012,0,0,1-5.663,1.58,9.229,9.229,0,0,1,0-18.458A9.054,9.054,0,0,1,459.825,42.086ZM445.3,40.248h10.626A5.379,5.379,0,0,0,450.6,36.5,5.62,5.62,0,0,0,445.3,40.248Z" transform="translate(-404.122 -23.703)" fill="gray"/>
        <path id="Trazado_7" data-name="Trazado 7" d="M469.531,37.913V28.757a1.82,1.82,0,0,1,3.64,0V45.266a9.21,9.21,0,1,1-3.64-7.353Zm0,7.353v-.037a5.607,5.607,0,1,0,0,.037Z" transform="translate(-396.768 -26.955)" fill="gray"/>
        <path id="Trazado_8" data-name="Trazado 8" d="M482.783,34.755V52.882A7.59,7.59,0,0,1,468.37,56.19a1.805,1.805,0,0,1,.845-2.426,1.786,1.786,0,0,1,2.39.845,4,4,0,0,0,3.567,2.205,3.946,3.946,0,0,0,3.97-3.933V50.234a7.3,7.3,0,0,1-3.787,1.03,7.4,7.4,0,0,1-7.39-7.318V34.755a1.8,1.8,0,1,1,3.6,0v9.118a3.788,3.788,0,0,0,7.575,0V34.755a1.82,1.82,0,0,1,3.64,0Z" transform="translate(-389.467 -23.65)" fill="gray"/>
        <path id="Trazado_9" data-name="Trazado 9" d="M491.479,37.935a1.845,1.845,0,0,1-1.839,1.839h-2.61V52.753a1.82,1.82,0,1,1-3.64,0V39.775h-2.648a1.837,1.837,0,0,1-1.8-1.839,1.8,1.8,0,0,1,1.8-1.8h2.648V28.781a1.82,1.82,0,0,1,3.64,0v7.353h2.61A1.813,1.813,0,0,1,491.479,37.935Z" transform="translate(-383.419 -26.942)" fill="gray"/>
        <path id="Trazado_10" data-name="Trazado 10" d="M503.263,34.755V52.882A7.59,7.59,0,0,1,488.85,56.19a1.808,1.808,0,0,1,.845-2.426,1.785,1.785,0,0,1,2.39.845,4,4,0,0,0,3.567,2.205,3.946,3.946,0,0,0,3.971-3.933V50.234a7.3,7.3,0,0,1-3.787,1.03,7.4,7.4,0,0,1-7.389-7.318V34.755a1.8,1.8,0,1,1,3.6,0v9.118a3.787,3.787,0,1,0,7.573,0V34.755a1.82,1.82,0,0,1,3.64,0Z" transform="translate(-378.182 -23.65)" fill="gray"/>
      </g>
    </g>
  </g>
</svg>
